HIERARCHY
ROOT hip
{
  OFFSET 0.0 0.0 0.0
  CHANNELS 6 Xposition Yposition Zposition Zrotation Yrotation Xrotation
  JOINT abdomen
  {
    OFFSET 0.0 20.6881 -0.73152
    CHANNELS 3 Zrotation Xrotation Yrotation
    JOINT chest
    {
      OFFSET 0.0 11.7043 -0.48768
      CHANNELS 3 Zrotation Xrotation Yrotation
      JOINT neck
      {
        OFFSET 0.0 22.1894 -2.19456
        CHANNELS 3 Zrotation Xrotation Yrotation
        JOINT head
        {
          OFFSET -0.24384 7.07133 1.2192
          CHANNELS 3 Zrotation Xrotation Yrotation
          JOINT leftEye
          {
            OFFSET 4.14528 8.04674 8.04672
            CHANNELS 3 Zrotation Xrotation Yrotation
            End Site
            {
              OFFSET 1.0 0.0 0.0
            }
          }
          JOINT rightEye
          {
            OFFSET -3.6576 8.04674 8.04672
            CHANNELS 3 Zrotation Xrotation Yrotation
            End Site
            {
              OFFSET 1.0 0.0 0.0
            }
          }
        }
      }
      JOINT rCollar
      {
        OFFSET -2.68224 19.2634 -4.8768
        CHANNELS 3 Zrotation Xrotation Yrotation
        JOINT rShldr
        {
          OFFSET -8.77824 -1.95073 1.46304
          CHANNELS 3 Zrotation Xrotation Yrotation
          JOINT rForeArm
          {
            OFFSET -28.1742 -1.7115 0.48768
            CHANNELS 3 Zrotation Xrotation Yrotation
            JOINT rHand
            {
              OFFSET -22.5879 0.773209 7.07136
              CHANNELS 3 Zrotation Xrotation Yrotation
              JOINT rThumb1
              {
                OFFSET -1.2192 -0.487915 3.41376
                CHANNELS 3 Zrotation Xrotation Yrotation
                JOINT rThumb2
                {
                  OFFSET -3.37035 -0.52449 3.41376
                  CHANNELS 3 Zrotation Xrotation Yrotation
                  End Site
                  {
                    OFFSET -1.78271 -1.18214 1.43049
                  }
                }
              }
              JOINT rIndex1
              {
                OFFSET -7.75947 0.938293 5.60832
                CHANNELS 3 Zrotation Xrotation Yrotation
                JOINT rIndex2
                {
                  OFFSET -2.54057 -0.884171 1.56538
                  CHANNELS 3 Zrotation Xrotation Yrotation
                  End Site
                  {
                    OFFSET -1.62519 -0.234802 1.16502
                  }
                }
              }
              JOINT rMid1
              {
                OFFSET -8.24714 1.18213 3.41376
                CHANNELS 3 Zrotation Xrotation Yrotation
                JOINT rMid2
                {
                  OFFSET -3.10165 -0.590103 1.0647
                  CHANNELS 3 Zrotation Xrotation Yrotation
                  End Site
                  {
                    OFFSET -2.48547 -0.328903 0.83742
                  }
                }
              }
              JOINT rRing1
              {
                OFFSET -8.82822 0.546677 1.51678
                CHANNELS 3 Zrotation Xrotation Yrotation
                JOINT rRing2
                {
                  OFFSET -2.60934 -0.819778 -0.0198488
                  CHANNELS 3 Zrotation Xrotation Yrotation
                  End Site
                  {
                    OFFSET -2.33842 -0.294052 0.168128
                  }
                }
              }
              JOINT rPinky1
              {
                OFFSET -8.27202 -0.0477905 -0.4584
                CHANNELS 3 Zrotation Xrotation Yrotation
                JOINT rPinky2
                {
                  OFFSET -1.82734 -0.647385 -0.700984
                  CHANNELS 3 Zrotation Xrotation Yrotation
                  End Site
                  {
                    OFFSET -1.69225 -0.51767 -0.607171
                  }
                }
              }
            }
          }
        }
      }
      JOINT lCollar
      {
        OFFSET 2.68224 19.2634 -4.8768
        CHANNELS 3 Zrotation Xrotation Yrotation
        JOINT lShldr
        {
          OFFSET 8.77824 -1.95073 1.46304
          CHANNELS 3 Zrotation Xrotation Yrotation
          JOINT lForeArm
          {
            OFFSET 28.1742 -1.7115 0.48768
            CHANNELS 3 Zrotation Xrotation Yrotation
            JOINT lHand
            {
              OFFSET 22.5879 0.773209 7.07136
              CHANNELS 3 Zrotation Xrotation Yrotation
              JOINT lThumb1
              {
                OFFSET 1.2192 -0.487915 3.41376
                CHANNELS 3 Zrotation Xrotation Yrotation
                JOINT lThumb2
                {
                  OFFSET 3.37035 -0.52449 3.41376
                  CHANNELS 3 Zrotation Xrotation Yrotation
                  End Site
                  {
                    OFFSET 1.78271 -1.18214 1.43049
                  }
                }
              }
              JOINT lIndex1
              {
                OFFSET 7.75947 0.938293 5.60832
                CHANNELS 3 Zrotation Xrotation Yrotation
                JOINT lIndex2
                {
                  OFFSET 2.54057 -0.884171 1.56538
                  CHANNELS 3 Zrotation Xrotation Yrotation
                  End Site
                  {
                    OFFSET 1.62519 -0.234802 1.16502
                  }
                }
              }
              JOINT lMid1
              {
                OFFSET 8.24714 1.18213 3.41376
                CHANNELS 3 Zrotation Xrotation Yrotation
                JOINT lMid2
                {
                  OFFSET 3.10165 -0.590103 1.0647
                  CHANNELS 3 Zrotation Xrotation Yrotation
                  End Site
                  {
                    OFFSET 2.48547 -0.328903 0.83742
                  }
                }
              }
              JOINT lRing1
              {
                OFFSET 8.82822 0.546677 1.51678
                CHANNELS 3 Zrotation Xrotation Yrotation
                JOINT lRing2
                {
                  OFFSET 2.60934 -0.819778 -0.0198488
                  CHANNELS 3 Zrotation Xrotation Yrotation
                  End Site
                  {
                    OFFSET 2.33842 -0.294052 0.168128
                  }
                }
              }
              JOINT lPinky1
              {
                OFFSET 8.27202 -0.0477905 -0.4584
                CHANNELS 3 Zrotation Xrotation Yrotation
                JOINT lPinky2
                {
                  OFFSET 1.82734 -0.647385 -0.700984
                  CHANNELS 3 Zrotation Xrotation Yrotation
                  End Site
                  {
                    OFFSET 1.69225 -0.51767 -0.607171
                  }
                }
              }
            }
          }
        }
      }
    }
  }
  JOINT rButtock
  {
    OFFSET -8.77824 4.35084 1.2192
    CHANNELS 3 Zrotation Xrotation Yrotation
    JOINT rThigh
    {
      OFFSET 0.0 -1.70687 -2.19456
      CHANNELS 3 Zrotation Xrotation Yrotation
      JOINT rShin
      {
        OFFSET 0.0 -36.8199 0.73152
        CHANNELS 3 Zrotation Xrotation Yrotation
        JOINT rFoot
        {
          OFFSET 0.73152 -45.1104 -5.12064
          CHANNELS 3 Zrotation Xrotation Yrotation
          End Site
          {
            OFFSET -1.1221 -3.69964 12.103
          }
        }
      }
    }
  }
  JOINT lButtock
  {
    OFFSET 8.77824 4.35084 1.2192
    CHANNELS 3 Zrotation Xrotation Yrotation
    JOINT lThigh
    {
      OFFSET 0.0 -1.70687 -2.19456
      CHANNELS 3 Zrotation Xrotation Yrotation
      JOINT lShin
      {
        OFFSET 0.0 -36.8199 0.73152
        CHANNELS 3 Zrotation Xrotation Yrotation
        JOINT lFoot
        {
          OFFSET -0.73152 -45.1104 -5.12064
          CHANNELS 3 Zrotation Xrotation Yrotation
          End Site
          {
            OFFSET 1.1221 -3.69964 12.103
          }
        }
      }
    }
  }
}
MOTION
Frames: 9
Frame Time: 0.00833333
6.46538 73.9012 -48.1456 -14.9269 19.4647 5.5123 8.00825 4.99881 3.01558 -1.79143 -1.68052 0.892448 4.50938 8.89306 -1.44687 -1.70059 -30.7135 -3.96624 -0.0 0.0 0.0 -0.0 0.0 0.0 -2.7228e-13 3.59004e-13 3.30408e-13 90.1022 27.7993 -16.7862 -25.0435 -21.1895 53.105 -0.16395 11.4642 1.63326 5.32924e-15 -4.77888e-09 2.04572e-09 1.60667e-11 -8.28253e-09 3.54072e-09 6.21742e-15 -4.77888e-09 2.04571e-09 7.73091 5.47488 0.417314 4.66311e-15 -4.77888e-09 2.04573e-09 2.90554 0.965183 0.102902 1.08804e-14 -4.77888e-09 2.04572e-09 10.2786 0.731801 0.0259123 -1.55414e-15 -4.77888e-09 2.04573e-09 2.22167 -0.733487 -0.20892 -2.72398e-13 3.59006e-13 3.30097e-13 -77.9238 57.002 0.210156 22.0417 -15.8201 -43.9019 0.02501 -4.53051 0.638044 3.27262e-09 4.2195e-09 -1.07761e-09 5.66557e-09 7.31041e-09 -1.85532e-09 3.27261e-09 4.21949e-09 -1.07759e-09 -7.73091 5.47488 -0.417314 3.27262e-09 4.21949e-09 -1.07761e-09 -2.90554 0.965183 -0.102902 3.27261e-09 4.21949e-09 -1.07761e-09 -10.2786 0.731801 -0.0259123 3.27262e-09 4.2195e-09 -1.07762e-09 -2.22167 -0.733487 0.20892 -2.03217e-16 0.0 -3.88251e-19 -11.5715 -11.5489 -9.32517 -0.181055 35.1112 0.990814 -2.70419 -5.49914 -17.7403 2.03217e-16 0.0 3.88251e-19 55.9625 -55.2063 47.2265 1.30563 63.585 -1.8466 -1.64061 -9.62665 -4.11645
6.78832 74.1455 -47.7334 -15.0301 21.1891 5.3171 8.29078 4.69695 2.93753 -1.7231 -1.60433 0.867737 4.40753 8.88774 -1.64407 -1.76071 -30.5979 -4.3666 -0.0 0.0 0.0 -0.0 0.0 0.0 -3.31331e-13 2.77196e-13 3.43024e-13 89.8536 27.4204 -17.1517 -25.0168 -21.132 53.0102 -0.155954 11.184 1.59229 1.39048e-09 -5.29353e-09 1.64325e-09 2.41611e-09 -9.15253e-09 2.83505e-09 1.39048e-09 -5.29353e-09 1.64323e-09 7.73091 5.47488 0.417314 1.39048e-09 -5.29353e-09 1.64325e-09 2.90554 0.965183 0.102902 1.39048e-09 -5.29354e-09 1.64324e-09 10.2786 0.731801 0.0259123 1.39047e-09 -5.29353e-09 1.64325e-09 2.22167 -0.733487 -0.20892 -3.31425e-13 2.77214e-13 3.42749e-13 -79.0171 57.0251 1.00931 21.9755 -15.7205 -43.7233 0.0196634 -4.01423 0.565081 4.15022e-09 5.28275e-09 -1.14806e-10 7.17547e-09 9.13955e-09 -1.88908e-10 4.15022e-09 5.28275e-09 -1.14778e-10 -7.73091 5.47488 -0.417314 4.15023e-09 5.28275e-09 -1.148e-10 -2.90554 0.965183 -0.102902 4.15022e-09 5.28275e-09 -1.14805e-10 -10.2786 0.731801 -0.0259123 4.15023e-09 5.28276e-09 -1.14811e-10 -2.22167 -0.733487 0.20892 -2.03217e-16 0.0 -3.88251e-19 -11.1221 -10.2789 -9.60604 -0.171831 34.2961 0.957548 -2.39283 -4.28885 -18.0681 2.03217e-16 0.0 3.88251e-19 55.7628 -55.0777 48.7633 1.29399 63.3673 -1.80986 -1.20209 -9.45324 -3.06802
7.1706 74.4082 -47.3042 -15.0995 22.8966 5.097 8.51928 4.3636 2.84894 -1.63716 -1.52886 0.838776 4.31473 8.87377 -1.84519 -1.81786 -30.4441 -4.77471 -0.0 0.0 0.0 -0.0 0.0 0.0 -3.25955e-13 1.84458e-13 3.08613e-13 89.6359 27.0234 -17.5623 -24.9811 -21.0555 52.8824 -0.147553 10.8848 1.54862 2.08746e-09 -5.0424e-09 1.21886e-09 3.61751e-09 -8.70659e-09 2.09606e-09 2.08747e-09 -5.0424e-09 1.21884e-09 7.73091 5.47488 0.417314 2.08746e-09 -5.0424e-09 1.21886e-09 2.90554 0.965183 0.102902 2.08747e-09 -5.0424e-09 1.21885e-09 10.2786 0.731801 0.0259123 2.08746e-09 -5.0424e-09 1.21886e-09 2.22167 -0.733487 -0.20892 -3.26031e-13 1.84486e-13 3.08365e-13 -80.0829 57.071 1.82693 21.9062 -15.617 -43.5366 0.0151961 -3.51719 0.494937 4.26001e-09 5.4233e-09 4.68426e-10 7.36092e-09 9.37692e-09 8.1974e-10 4.26e-09 5.42331e-09 4.68458e-10 -7.73091 5.47488 -0.417314 4.26001e-09 5.42331e-09 4.68435e-10 -2.90554 0.965183 -0.102902 4.26e-09 5.42331e-09 4.68429e-10 -10.2786 0.731801 -0.0259123 4.26001e-09 5.42331e-09 4.68423e-10 -2.22167 -0.733487 0.20892 -2.03217e-16 0.0 -3.88251e-19 -10.6395 -9.07879 -9.66771 -0.164505 33.5707 0.923926 -1.9911 -2.8372 -18.418 2.03217e-16 0.0 3.88251e-19 55.2662 -54.9169 49.897 1.27637 63.0771 -1.76687 -0.842443 -9.3886 -2.2116
7.612 74.6834 -46.8656 -15.1347 24.6074 4.8662 8.68653 3.99616 2.75781 -1.5218 -1.4525 0.80786 4.2363 8.85452 -2.04932 -1.87277 -30.2512 -5.18917 -0.0 0.0 0.0 -0.0 0.0 0.0 -1.95366e-13 3.76059e-14 1.9263e-13 89.4496 26.5992 -18.0269 -24.9344 -20.956 52.7171 -0.137619 10.5264 1.49639 1.64724e-09 -3.36544e-09 6.44136e-10 2.85262e-09 -5.80864e-09 1.10476e-09 1.64725e-09 -3.36544e-09 6.44124e-10 7.73091 5.47488 0.417314 1.64724e-09 -3.36544e-09 6.44138e-10 2.90554 0.965183 0.102902 1.64725e-09 -3.36545e-09 6.44135e-10 10.2786 0.731801 0.0259123 1.64724e-09 -3.36545e-09 6.44143e-10 2.22167 -0.733487 -0.20892 -1.95431e-13 3.76336e-14 1.92399e-13 -81.1425 57.1381 2.68577 21.8305 -15.5051 -43.3329 0.0111317 -3.02284 0.425235 3.029e-09 3.98774e-09 4.50758e-10 5.23301e-09 6.89485e-09 7.86841e-10 3.02899e-09 3.98774e-09 4.50788e-10 -7.73091 5.47488 -0.417314 3.029e-09 3.98774e-09 4.50769e-10 -2.90554 0.965183 -0.102902 3.02899e-09 3.98774e-09 4.50763e-10 -10.2786 0.731801 -0.0259123 3.029e-09 3.98774e-09 4.50757e-10 -2.22167 -0.733487 0.20892 -2.03217e-16 0.0 -3.88251e-19 -10.1164 -7.89701 -9.45404 -0.157415 32.8717 0.888589 -1.50005 -1.14921 -18.8642 2.03217e-16 0.0 3.88251e-19 54.4782 -54.6952 50.6628 1.2528 62.7053 -1.71766 -0.558659 -9.46996 -1.55246
8.11036 74.9658 -46.425 -15.1361 26.3426 4.6386 8.802 3.60278 2.66952 -1.37843 -1.37582 0.776788 4.17025 8.83041 -2.25645 -1.92328 -30.0177 -5.60882 -0.0 0.0 0.0 -0.0 0.0 0.0 1.94062e-14 -1.54268e-13 1.84124e-14 89.287 26.1393 -18.5492 -24.8786 -20.8378 52.5227 -0.126846 10.1189 1.43716 5.00215e-10 -6.6832e-10 -8.16868e-11 8.65195e-10 -1.15457e-09 -1.4318e-10 5.00215e-10 -6.68317e-10 -8.16971e-11 7.73091 5.47488 0.417314 5.00213e-10 -6.68318e-10 -8.1683e-11 2.90554 0.965183 0.102902 5.00221e-10 -6.6832e-10 -8.16852e-11 10.2786 0.731801 0.0259123 5.00208e-10 -6.68322e-10 -8.16789e-11 2.22167 -0.733487 -0.20892 1.93487e-14 -1.54246e-13 1.8195e-14 -82.2134 57.2292 3.59444 21.747 -15.3823 -43.1095 0.00755578 -2.52582 0.355209 8.75278e-10 1.45598e-09 8.34626e-11 1.51258e-09 2.52064e-09 1.47631e-10 8.75271e-10 1.45599e-09 8.3488e-11 -7.73091 5.47488 -0.417314 8.75279e-10 1.45598e-09 8.34734e-11 -2.90554 0.965183 -0.102902 8.75268e-10 1.45599e-09 8.3469e-11 -10.2786 0.731801 -0.0259123 8.7528e-10 1.45598e-09 8.34651e-11 -2.22167 -0.733487 0.20892 -2.03217e-16 0.0 -3.88251e-19 -9.57947 -6.71127 -9.01807 -0.150749 32.1748 0.85108 -0.909811 0.752145 -19.3855 2.03217e-16 0.0 3.88251e-19 53.3932 -54.4139 51.1012 1.22451 62.2529 -1.66261 -0.320127 -9.69463 -1.01937
8.66369 75.2487 -45.9899 -15.1034 28.12 4.4264 8.87361 3.18311 2.56217 -1.2325 -1.30198 0.739049 4.10573 8.79354 -2.46859 -1.96532 -29.7466 -6.03581 -0.0 0.0 0.0 -0.0 0.0 0.0 2.12365e-13 -3.00819e-13 -1.53817e-13 89.1464 25.6704 -19.1044 -24.8153 -20.705 52.3037 -0.117623 9.74533 1.38306 -6.78043e-10 1.86813e-09 -6.69096e-10 -1.17537e-09 3.22142e-09 -1.1518e-09 -6.78043e-10 1.86813e-09 -6.69105e-10 7.73091 5.47488 0.417314 -6.78046e-10 1.86813e-09 -6.6909e-10 2.90554 0.965183 0.102902 -6.78037e-10 1.86813e-09 -6.69091e-10 10.2786 0.731801 0.0259123 -6.7805e-10 1.86813e-09 -6.69087e-10 2.22167 -0.733487 -0.20892 2.12312e-13 -3.00804e-13 -1.54024e-13 -83.2435 57.3437 4.50251 21.6634 -15.2602 -42.8883 0.00496528 -2.06741 0.290674 -1.22552e-09 -1.06172e-09 -3.23933e-10 -2.11592e-09 -1.82889e-09 -5.60818e-10 -1.22553e-09 -1.06172e-09 -3.23913e-10 -7.73091 5.47488 -0.417314 -1.22552e-09 -1.06172e-09 -3.23923e-10 -2.90554 0.965183 -0.102902 -1.22554e-09 -1.06172e-09 -3.23925e-10 -10.2786 0.731801 -0.0259123 -1.22552e-09 -1.06172e-09 -3.23928e-10 -2.22167 -0.733487 0.20892 -2.03217e-16 0.0 -3.88251e-19 -9.07682 -5.64596 -8.45153 -0.14752 31.6411 0.814223 -0.197786 2.88534 -19.8603 2.03217e-16 0.0 3.88251e-19 52.0149 -54.1817 51.128 1.19299 61.7398 -1.60366 -0.139158 -9.98618 -0.651058
9.26709 75.5292 -45.5696 -15.0352 29.9509 4.2405 8.90863 2.73677 2.41393 -1.10945 -1.23411 0.688132 4.03181 8.73603 -2.6877 -1.99486 -29.4412 -6.47228 -0.0 0.0 0.0 -0.0 0.0 0.0 2.77513e-13 -3.11699e-13 -2.63837e-13 89.0281 25.2191 -19.6685 -24.7462 -20.5617 52.0646 -0.111722 9.48897 1.34604 -1.21195e-09 3.06306e-09 -8.28573e-10 -2.09967e-09 5.28514e-09 -1.42514e-09 -1.21195e-09 3.06306e-09 -8.28582e-10 7.73091 5.47488 0.417314 -1.21195e-09 3.06306e-09 -8.28566e-10 2.90554 0.965183 0.102902 -1.21194e-09 3.06306e-09 -8.28567e-10 10.2786 0.731801 0.0259123 -1.21196e-09 3.06306e-09 -8.28563e-10 2.22167 -0.733487 -0.20892 2.77463e-13 -3.1169e-13 -2.64036e-13 -84.1801 57.4829 5.35901 21.5883 -15.151 -42.691 0.00349955 -1.6889 0.237428 -2.29777e-09 -2.45513e-09 -4.61902e-10 -3.96804e-09 -4.23694e-09 -8.0143e-10 -2.29778e-09 -2.45513e-09 -4.61887e-10 -7.73091 5.47488 -0.417314 -2.29777e-09 -2.45513e-09 -4.61893e-10 -2.90554 0.965183 -0.102902 -2.29778e-09 -2.45513e-09 -4.61894e-10 -10.2786 0.731801 -0.0259123 -2.29777e-09 -2.45514e-09 -4.61896e-10 -2.22167 -0.733487 0.20892 -2.03217e-16 0.0 -3.88251e-19 -8.64361 -4.82787 -7.84317 -0.150136 31.4315 0.780455 0.640459 5.27567 -20.1696 2.03217e-16 0.0 3.88251e-19 50.3484 -54.1016 50.6585 1.15945 61.1855 -1.54256 -0.0323021 -10.2681 -0.486946
9.915 75.8034 -45.1704 -14.9283 31.8381 4.0888 8.91134 2.23568 2.20481 -1.01576 -1.16989 0.617369 3.94861 8.65444 -2.91373 -2.00015 -29.0859 -6.91506 -0.0 0.0 0.0 -0.0 0.0 0.0 1.31589e-13 -9.68412e-14 -2.65906e-13 88.9368 24.7714 -20.2451 -24.6654 -20.3961 51.7855 -0.10917 9.37155 1.32912 -7.70589e-10 2.07922e-09 -2.73717e-10 -1.33423e-09 3.59297e-09 -4.70404e-10 -7.70589e-10 2.07922e-09 -2.73729e-10 7.73091 5.47488 0.417314 -7.70592e-10 2.07922e-09 -2.73714e-10 2.90554 0.965183 0.102902 -7.70581e-10 2.07922e-09 -2.73713e-10 10.2786 0.731801 0.0259123 -7.70593e-10 2.07922e-09 -2.73708e-10 2.22167 -0.733487 -0.20892 1.31538e-13 -9.68378e-14 -2.66099e-13 -85.0195 57.6532 6.16991 21.5177 -15.0493 -42.5055 0.00261412 -1.39304 0.195829 -1.75931e-09 -2.06325e-09 -1.94511e-10 -3.03843e-09 -3.56217e-09 -3.38193e-10 -1.75932e-09 -2.06324e-09 -1.94497e-10 -7.73091 5.47488 -0.417314 -1.75932e-09 -2.06325e-09 -1.94503e-10 -2.90554 0.965183 -0.102902 -1.75933e-09 -2.06324e-09 -1.94504e-10 -10.2786 0.731801 -0.0259123 -1.75931e-09 -2.06325e-09 -1.94507e-10 -2.22167 -0.733487 0.20892 -2.03217e-16 0.0 -3.88251e-19 -8.24975 -4.26529 -7.16886 -0.158001 31.5568 0.74591 1.62518 8.01675 -20.4238 2.03217e-16 0.0 3.88251e-19 48.3674 -54.1924 49.6249 1.12382 60.5813 -1.47751 -0.0368189 -10.5517 -0.626065
10.6009 76.0688 -44.7976 -14.7771 33.7742 3.9774 8.87456 1.68927 1.95133 -0.937911 -1.1087 0.531876 3.86053 8.55343 -3.14575 -1.98468 -28.6845 -7.36336 -0.0 0.0 0.0 -0.0 0.0 0.0 -1.50542e-13 2.73578e-13 -2.02037e-13 88.87 24.32 -20.8436 -24.5731 -20.2091 51.4716 -0.108691 9.34887 1.32585 2.35479e-10 -2.79495e-10 7.7133e-10 4.10083e-10 -4.69802e-10 1.32771e-09 2.35479e-10 -2.79488e-10 7.71313e-10 7.73091 5.47488 0.417314 2.35476e-10 -2.79491e-10 7.71327e-10 2.90554 0.965183 0.102902 2.35488e-10 -2.79489e-10 7.71331e-10 10.2786 0.731801 0.0259123 2.35477e-10 -2.79489e-10 7.71338e-10 2.22167 -0.733487 -0.20892 -1.50599e-13 2.73576e-13 -2.02226e-13 -85.79 57.8528 6.95899 21.4494 -14.9518 -42.3262 0.0018488 -1.16057 0.16314 -2.37821e-10 -5.99835e-10 2.95362e-10 -4.10837e-10 -1.03694e-09 5.11523e-10 -2.37832e-10 -5.99835e-10 2.95376e-10 -7.73091 5.47488 -0.417314 -2.37826e-10 -5.99837e-10 2.95369e-10 -2.90554 0.965183 -0.102902 -2.37835e-10 -5.99836e-10 2.95366e-10 -10.2786 0.731801 -0.0259123 -2.37819e-10 -5.99834e-10 2.95363e-10 -2.22167 -0.733487 0.20892 -2.03217e-16 0.0 -3.88251e-19 -7.88419 -3.89972 -6.39434 -0.169212 31.9418 0.710216 2.74192 11.0703 -20.6679 2.03217e-16 0.0 3.88251e-19 46.0702 -54.3817 48.0733 1.08662 59.9215 -1.40929 -0.139099 -10.8672 -1.01899
